<svg width="69" height="65" viewBox="0 0 69 65" fill="none" xmlns="http://www.w3.org/2000/svg">
<g clip-path="url(#clip0)">
<path d="M35 4.75C19.56 4.75 7 17.31 7 32.75C7 48.19 19.56 60.75 35 60.75C50.44 60.75 63 48.19 63 32.75C63 17.31 50.44 4.75 35 4.75ZM35 57.75C21.19 57.75 10 46.56 10 32.75C10 18.94 21.19 7.75 35 7.75C48.81 7.75 60 18.94 60 32.75C60 46.56 48.81 57.75 35 57.75Z" fill="black"/>
<path d="M26.17 22.85C26.38 23.36 26.97 23.6 27.48 23.38C27.99 23.17 28.23 22.58 28.01 22.07C27.03 19.75 24.77 18.25 22.25 18.25C18.8 18.25 16 21.06 16 24.51C16 25.35 16.17 26.17 16.49 26.94C16.65 27.32 17.02 27.55 17.41 27.55C17.54 27.55 17.67 27.52 17.8 27.47C18.31 27.26 18.55 26.67 18.33 26.16C18.11 25.64 18 25.08 18 24.5C18 22.15 19.91 20.24 22.25 20.24C23.96 20.25 25.5 21.27 26.17 22.85Z" fill="black"/>
<path d="M41.25 13.07C37.8 13.07 35 15.88 35 19.32C35 20.16 35.17 20.98 35.49 21.76C35.65 22.14 36.02 22.37 36.41 22.37C36.54 22.37 36.67 22.34 36.8 22.29C37.31 22.07 37.55 21.49 37.33 20.98C37.11 20.46 37 19.9 37 19.33C37 16.98 38.91 15.08 41.25 15.08C42.96 15.08 44.5 16.1 45.17 17.68C45.38 18.19 45.97 18.43 46.48 18.21C46.99 18 47.23 17.41 47.01 16.9C46.04 14.57 43.77 13.07 41.25 13.07Z" fill="black"/>
<path d="M43.39 27.75C42.89 27.53 42.3 27.77 42.08 28.27C40.85 31.15 38.28 33.44 35.22 34.4C32.94 35.11 29.36 35.42 25.2 32.82C24.73 32.53 24.11 32.67 23.82 33.14C23.53 33.61 23.67 34.23 24.14 34.52C26.66 36.09 29.35 36.9 32 36.9C33.3 36.9 34.58 36.71 35.82 36.32C39.43 35.19 42.46 32.48 43.92 29.07C44.14 28.55 43.9 27.96 43.39 27.75Z" fill="black"/>
</g>
<defs>
<clipPath id="clip0">
<rect width="69" height="65" fill="white"/>
</clipPath>
</defs>
</svg>
