<svg width="39" height="82" viewBox="0 0 39 82" fill="none" xmlns="http://www.w3.org/2000/svg">
<g clip-path="url(#clip0)">
<path fill-rule="evenodd" clip-rule="evenodd" d="M19.9375 19.7917C17.3487 19.7917 15.25 17.693 15.25 15.1042C15.25 12.5154 17.3487 10.4167 19.9375 10.4167C22.5264 10.4167 24.625 12.5154 24.625 15.1042C24.625 17.693 22.5264 19.7917 19.9375 19.7917ZM19.9375 44.7917C17.3487 44.7917 15.25 42.693 15.25 40.1042C15.25 37.5154 17.3487 35.4167 19.9375 35.4167C22.5264 35.4167 24.625 37.5154 24.625 40.1042C24.625 42.693 22.5264 44.7917 19.9375 44.7917ZM19.9375 69.7917C17.3487 69.7917 15.25 67.693 15.25 65.1042C15.25 62.5154 17.3487 60.4167 19.9375 60.4167C22.5264 60.4167 24.625 62.5154 24.625 65.1042C24.625 67.693 22.5264 69.7917 19.9375 69.7917Z" fill="black"/>
</g>
<defs>
<clipPath id="clip0">
<rect width="39" height="82" fill="white"/>
</clipPath>
</defs>
</svg>
