<svg width="67" height="66" viewBox="0 0 67 66" fill="none" xmlns="http://www.w3.org/2000/svg">
<g clip-path="url(#clip0)">
<path d="M33.4987 38.5107C27.8432 38.5107 22.6916 41.3334 20.0538 45.8767C19.6826 46.5165 19.9003 47.3366 20.5402 47.7078C20.7519 47.8311 20.9831 47.8893 21.2115 47.8893C21.6732 47.8893 22.1234 47.6508 22.372 47.222C24.5314 43.5015 28.7946 41.1907 33.4987 41.1907C38.2027 41.1907 42.4673 43.5015 44.6267 47.222C44.9985 47.8619 45.8173 48.079 46.4578 47.7084C47.0983 47.3366 47.3154 46.5165 46.9442 45.8767C44.3071 41.3327 39.1548 38.5107 33.4987 38.5107Z" fill="black"/>
<path d="M33.5 5.67999C18.2468 5.67999 5.35999 18.5661 5.35999 33.82C5.35999 49.0739 18.2468 61.96 33.5 61.96C48.7532 61.96 61.64 49.0739 61.64 33.82C61.64 18.5661 48.7532 5.67999 33.5 5.67999ZM33.5 59.28C19.6993 59.28 8.03999 47.6206 8.03999 33.82C8.03999 20.0193 19.6993 8.35999 33.5 8.35999C47.3006 8.35999 58.96 20.0193 58.96 33.82C58.96 47.6206 47.3006 59.28 33.5 59.28Z" fill="black"/>
<path d="M23.785 33.3952C25.0823 33.3952 26.134 32.3435 26.134 31.0462C26.134 29.7489 25.0823 28.6972 23.785 28.6972C22.4877 28.6972 21.436 29.7489 21.436 31.0462C21.436 32.3435 22.4877 33.3952 23.785 33.3952Z" fill="black"/>
<path d="M43.546 33.3952C44.8433 33.3952 45.895 32.3435 45.895 31.0462C45.895 29.7489 44.8433 28.6972 43.546 28.6972C42.2487 28.6972 41.197 29.7489 41.197 31.0462C41.197 32.3435 42.2487 33.3952 43.546 33.3952Z" fill="black"/>
</g>
<defs>
<clipPath id="clip0">
<rect width="67" height="65.31" fill="white"/>
</clipPath>
</defs>
</svg>
